<?xml version="1.0" encoding="iso-8859-1"?>
<!-- Generator: Adobe Illustrator 19.0.0, SVG Export Plug-In . SVG Version: 6.00 Build 0)  -->
<svg version="1.1" id="Capa_1" xmlns="http://www.w3.org/2000/svg" xmlns:xlink="http://www.w3.org/1999/xlink" x="0px" y="0px"
	 viewBox="0 0 512.695 512.695" style="enable-background:new 0 0 512.695 512.695;" xml:space="preserve">
<g>
	<path style="fill:#FFD15C;" d="M20.383,253.147c-2.133,0-4.267,0-6.4-1.067c-8.533-4.267-13.867-11.733-13.867-21.333
		c-2.133-21.333,25.6-43.733,30.933-49.067c5.333-4.267,12.8-3.2,17.067,2.133c4.267,5.333,3.2,12.8-2.133,17.067
		c-10.667,8.533-22.4,22.4-21.333,27.733c0,0,1.067,1.067,2.133,2.133c5.333,3.2,7.467,10.667,4.267,16
		C28.917,251.014,24.65,253.147,20.383,253.147z"/>
	<path style="fill:#FFD15C;" d="M498.25,275.547c-1.067,0-2.133,0-3.2,0c-6.4-1.067-10.667-8.533-8.533-14.933
		c6.4-25.6-18.133-36.267-19.2-36.267c-6.4-2.133-9.6-9.6-6.4-16c2.133-6.4,9.6-9.6,16-6.4c16,6.4,42.667,27.733,34.133,64
		C508.917,271.281,504.65,275.547,498.25,275.547z"/>
</g>
<path style="fill:#F3705A;" d="M261.45,463.281c0,0,241.067-114.133,241.067-290.133c0-68.267-55.467-123.733-123.733-123.733
	c-54.4,0-100.267,34.133-117.333,82.133c-17.067-48-62.933-82.133-117.333-82.133c-68.267,0-123.733,55.467-123.733,123.733
	C20.383,350.214,261.45,463.281,261.45,463.281z"/>
<g>
	<path style="fill:#FFD15C;" d="M408.65,305.414c-81.067,0-187.733-24.533-221.867-39.467c-44.8-11.733-86.4-10.667-117.333-9.6
		c-25.6,1.067-43.733,1.067-55.467-5.333c-5.333-3.2-7.467-10.667-4.267-16s10.667-7.467,16-4.267c6.4,3.2,23.467,3.2,42.667,2.133
		c33.067-1.067,76.8-3.2,125.867,10.667l2.133,1.067c45.867,20.267,215.467,53.333,275.2,28.8c8.533-3.2,13.867-8.533,16-13.867
		c2.133-6.4,9.6-9.6,16-6.4c6.4,2.133,9.6,9.6,6.4,16c-4.267,11.733-14.933,20.267-29.867,26.667
		C461.983,302.214,437.45,305.414,408.65,305.414z"/>
	<path style="fill:#FFD15C;" d="M167.583,257.414c-2.133,0-3.2,0-5.333-1.067c-8.533-4.267-53.333-23.467-64-41.6l0,0
		c-13.867-21.333-9.6-49.067,10.667-60.8c19.2-12.8,45.867-5.333,59.733,16c11.733,18.133,11.733,66.133,11.733,75.733
		c0,4.267-2.133,7.467-5.333,9.6C171.85,256.347,169.717,257.414,167.583,257.414z M118.517,200.881
		c3.2,5.333,19.2,16,36.267,24.533c-1.067-19.2-3.2-37.333-7.467-43.733c-6.4-9.6-18.133-13.867-26.667-8.533
		C113.183,179.547,112.117,191.281,118.517,200.881L118.517,200.881z"/>
	<path style="fill:#FFD15C;" d="M164.383,257.414c-4.267,0-7.467-2.133-9.6-5.333c-2.133-3.2-3.2-7.467-1.067-11.733
		c3.2-8.533,22.4-53.333,40.533-65.067c21.333-13.867,48-9.6,60.8,9.6c6.4,9.6,8.533,21.333,5.333,33.067
		c-3.2,10.667-9.6,20.267-20.267,27.733C221.983,256.347,173.983,257.414,164.383,257.414L164.383,257.414z M220.917,191.281
		c-4.267,0-9.6,1.067-13.867,4.267c-5.333,4.267-14.933,20.267-23.467,37.333c19.2-1.067,37.333-4.267,42.667-7.467l0,0
		c5.333-3.2,8.533-8.533,9.6-13.867c1.067-4.267,1.067-9.6-2.133-12.8C231.583,193.414,226.25,191.281,220.917,191.281z"/>
	<path style="fill:#FFD15C;" d="M208.117,388.614c-2.133,0-3.2,0-5.333-1.067c-6.4-3.2-8.533-10.667-5.333-16
		c10.667-21.333,0-49.067-7.467-64c-4.267-7.467-8.533-14.933-12.8-22.4c-8.533-14.933-18.133-29.867-23.467-48
		c-2.133-6.4,1.067-12.8,7.467-14.933c6.4-2.133,12.8,2.133,14.933,7.467c4.267,14.933,12.8,28.8,21.333,42.667
		c4.267,7.467,9.6,16,13.867,24.533c16,32,19.2,61.867,7.467,85.333C216.65,386.481,212.383,388.614,208.117,388.614z"/>
	<path style="fill:#FFD15C;" d="M118.517,340.614c-3.2,0-7.467-2.133-9.6-5.333c-4.267-5.333-3.2-12.8,2.133-17.067
		c5.333-4.267,7.467-13.867,9.6-24.533c2.133-13.867,5.333-29.867,19.2-39.467c5.333-4.267,11.733-6.4,17.067-7.467
		c1.067,0,3.2-1.067,4.267-1.067c4.267-1.067,7.467-3.2,7.467-5.333c2.133-6.4,8.533-9.6,14.933-7.467
		c6.4,2.133,9.6,8.533,7.467,14.933c-2.133,6.4-7.467,14.933-22.4,20.267c-2.133,1.067-3.2,1.067-5.333,2.133
		c-4.267,1.067-7.467,2.133-10.667,4.267c-5.333,4.267-7.467,13.867-9.6,23.467c-2.133,11.733-4.267,28.8-18.133,39.467
		C122.783,339.547,120.65,340.614,118.517,340.614z"/>
</g>
<g>
</g>
<g>
</g>
<g>
</g>
<g>
</g>
<g>
</g>
<g>
</g>
<g>
</g>
<g>
</g>
<g>
</g>
<g>
</g>
<g>
</g>
<g>
</g>
<g>
</g>
<g>
</g>
<g>
</g>
</svg>
